<svg xmlns="http://www.w3.org/2000/svg" width="148.94" height="47.667" viewBox="0 0 148.94 47.667">
  <g id="Grupo_4" data-name="Grupo 4" transform="translate(-128.242 -321.573)">
    <g id="Grupo_1" data-name="Grupo 1" transform="translate(128.242 321.573)">
      <path id="Caminho_1" data-name="Caminho 1" d="M163.229,339.571c0-3.9,0-7.8.008-11.7,0-.344-.07-.459-.437-.451a19.2,19.2,0,0,1-3.444-.151,29.956,29.956,0,0,1-6.032-1.565,28.665,28.665,0,0,1-6.9-3.76c-.694-.514-.7-.5-1.412.032a27.149,27.149,0,0,1-7.111,3.829,24.66,24.66,0,0,1-8.653,1.637c-1-.009-1.009.01-1.009,1.029q0,10.751.01,21.5a15.977,15.977,0,0,0,4.067,10.678,27.95,27.95,0,0,0,7.555,6.036,41.81,41.81,0,0,0,4.757,2.283,2.617,2.617,0,0,0,2.209.039,41.1,41.1,0,0,0,7.28-3.869,21.361,21.361,0,0,0,7.825-8.825,13.876,13.876,0,0,0,1.271-5.455C163.259,347.1,163.229,343.336,163.229,339.571Zm-3.219,1.39h.007c0,3.124,0,6.262,0,9.4a11.242,11.242,0,0,1-1.164,4.736c-1.591,3.452-4.336,5.792-7.456,7.768a23.736,23.736,0,0,1-3.918,2.028,6.227,6.227,0,0,1-1.555.583,3.466,3.466,0,0,1-1.738-.512,28.149,28.149,0,0,1-6.509-3.823,20.093,20.093,0,0,1-3.575-3.63,13.034,13.034,0,0,1-2.181-4.444,12.809,12.809,0,0,1-.459-3.37q-.011-9.3-.011-18.608c0-.348.048-.51.462-.534a23.9,23.9,0,0,0,4.234-.618,27.927,27.927,0,0,0,7.132-2.795c.709-.4,1.385-.846,2.07-1.28a.658.658,0,0,1,.81.012,26.4,26.4,0,0,0,7.264,3.518,18.427,18.427,0,0,0,6.16,1.092c.373-.013.434.127.433.465C160,334.282,160.009,337.622,160.009,340.961Z" transform="translate(-128.242 -321.573)" fill="#fff"/>
      <path id="Caminho_2" data-name="Caminho 2" d="M176.692,351.514c-1.138.014-2.277,0-3.415.012-.3,0-.389-.083-.385-.386.018-1.138,0-2.277.015-3.415,0-.3-.095-.4-.388-.391q-1.728.024-3.455.017c-.271,0-.368.087-.369.369,0,1.125-.045,2.25-.039,3.375,0,.341-.1.436-.43.434-1.125-.008-2.25.019-3.375.012-.3,0-.393.1-.39.393.014,1.139.016,2.277,0,3.416,0,.34.118.433.443.429,1.125-.017,2.251,0,3.376-.015.306,0,.383.092.382.389,0,1.138.03,2.277.029,3.415,0,.289.07.4.381.391q1.687-.028,3.375,0c.344.006.436-.124.433-.444-.007-1.1.026-2.2,0-3.295-.008-.382.119-.462.473-.455,1.111.021,2.224,0,3.335.014.3,0,.4-.087.392-.387-.019-.575-.006-1.152-.006-1.728s-.016-1.18.007-1.768C177.1,351.583,176.983,351.51,176.692,351.514Z" transform="translate(-148.538 -336.008)" fill="#fff"/>
    </g>
    <g id="Grupo_3" data-name="Grupo 3" transform="translate(173.059 335.451)">
      <g id="Grupo_2" data-name="Grupo 2" transform="translate(0 0)">
        <path id="Caminho_3" data-name="Caminho 3" d="M230.188,364.29q0-5.273,2.937-8.21t8.181-2.938q5.376,0,8.284,2.886t2.908,8.086a13.256,13.256,0,0,1-1.27,6.19,9.062,9.062,0,0,1-3.672,3.76,12.122,12.122,0,0,1-5.985,1.344,13.778,13.778,0,0,1-6.029-1.16,9.081,9.081,0,0,1-3.87-3.672A12.191,12.191,0,0,1,230.188,364.29Zm6.653.029q0,3.261,1.212,4.685a4.587,4.587,0,0,0,6.617.029q1.174-1.4,1.175-5.009a6.654,6.654,0,0,0-1.227-4.443,4.192,4.192,0,0,0-3.326-1.4,4.042,4.042,0,0,0-3.232,1.425Q236.841,361.029,236.841,364.319Z" transform="translate(-230.188 -353.142)" fill="#3e4142"/>
        <path id="Caminho_4" data-name="Caminho 4" d="M281.347,353.977h7.329l3.812,6.625,3.708-6.625h7.256l-6.7,10.429,7.333,11.1h-7.476l-4.252-6.918L288.1,375.51h-7.432l7.427-11.221Z" transform="translate(-258.478 -353.61)" fill="#3e4142"/>
        <path id="Caminho_5" data-name="Caminho 5" d="M339.373,353.977h6.668V375.51h-6.668Z" transform="translate(-291.373 -353.61)" fill="#3e4142"/>
        <path id="Caminho_6" data-name="Caminho 6" d="M365.6,375.51V353.977h11.089a16.106,16.106,0,0,1,4.715.529,5.018,5.018,0,0,1,2.629,1.961,6.078,6.078,0,0,1-1.867,8.688,8.02,8.02,0,0,1-2.336.852,4.505,4.505,0,0,1,2.8,1.926,8.559,8.559,0,0,1,.932,1.338l3.222,6.239h-7.518l-3.556-6.581a5.021,5.021,0,0,0-1.2-1.659,2.791,2.791,0,0,0-1.63-.5h-.588v8.739Zm6.683-12.808h2.806a10.046,10.046,0,0,0,1.763-.294,1.761,1.761,0,0,0,1.079-.676,2.181,2.181,0,0,0-.243-2.85,4,4,0,0,0-2.482-.558h-2.923Z" transform="translate(-306.07 -353.61)" fill="#3e4142"/>
        <path id="Caminho_7" data-name="Caminho 7" d="M429.107,371.955h-7.554L420.5,375.51h-6.794l8.093-21.533h7.259l8.091,21.533h-6.968Zm-1.38-4.656-2.377-7.741L423,367.3Z" transform="translate(-333.03 -353.61)" fill="#3e4142"/>
      </g>
    </g>
  </g>
</svg>
